<?xml version="1.0" encoding="UTF-8"?>
<svg version="1.1" xmlns="http://www.w3.org/2000/svg" width="32" height="32">
<path d="M0 0 C0.66 0 1.32 0 2 0 C1.76228882 0.78842285 1.76228882 0.78842285 1.51977539 1.59277344 C0.87265174 4.58978574 0.78111912 7.45054208 0.68359375 10.515625 C0.64548584 11.64258789 0.60737793 12.76955078 0.56811523 13.93066406 C0.50346069 16.06873535 0.50346069 16.06873535 0.4375 18.25 C0.293125 22.7875 0.14875 27.325 0 32 C-9.9 32 -19.8 32 -30 32 C-30 22.1 -30 12.2 -30 2 C-15.5625 1.5625 -15.5625 1.5625 -11.00219727 1.43188477 C-9.82713623 1.39377686 -8.6520752 1.35566895 -7.44140625 1.31640625 C-6.23170166 1.27974854 -5.02199707 1.24309082 -3.77563477 1.20532227 C-1.09294544 1.31061734 -1.09294544 1.31061734 0 0 Z " fill="#E13934" transform="translate(30,0)"/>
<path d="M0 0 C-1.59243222 4.66099543 -4.11841109 8.40709376 -6.875 12.4375 C-7.30941406 13.08009766 -7.74382813 13.72269531 -8.19140625 14.38476562 C-9.04822044 15.6519758 -9.90849229 16.91685602 -10.77246094 18.17919922 C-11.58014836 19.37723677 -12.37052202 20.58716171 -13.14160156 21.80908203 C-14.04642523 23.2375965 -15.01734831 24.62386225 -16 26 C-16.66 26 -17.32 26 -18 26 C-19.47309111 23.89980986 -20.81309635 21.82232271 -22.125 19.625 C-22.49753906 19.02171875 -22.87007812 18.4184375 -23.25390625 17.796875 C-26 13.27034684 -26 13.27034684 -26 11 C-25.278125 11.309375 -24.55625 11.61875 -23.8125 11.9375 C-22.884375 12.288125 -21.95625 12.63875 -21 13 C-20.26523437 13.33 -19.53046875 13.66 -18.7734375 14 C-15.3658664 14 -14.91430356 13.33955979 -12.51953125 11.03515625 C-11.26840263 9.7255264 -10.0331936 8.40054345 -8.8125 7.0625 C-7.57329439 5.73686774 -6.33000566 4.41503673 -5.08203125 3.09765625 C-4.53780518 2.50476807 -3.9935791 1.91187988 -3.43286133 1.30102539 C-2 0 -2 0 0 0 Z " fill="#FCF2F1" transform="translate(32,0)"/>
</svg>
