<?xml version="1.0" standalone="no"?>
<!DOCTYPE svg PUBLIC "-//W3C//DTD SVG 20010904//EN"
 "http://www.w3.org/TR/2001/REC-SVG-20010904/DTD/svg10.dtd">
<svg version="1.0" xmlns="http://www.w3.org/2000/svg"
 width="1368.000000pt" height="432.000000pt" viewBox="0 0 1368.000000 432.000000"
 preserveAspectRatio="xMidYMid meet">

<g transform="translate(0.000000,432.000000) scale(0.100000,-0.100000)"
fill="#000000" stroke="none">
<path d="M6175 3070 c-206 -37 -325 -156 -325 -323 0 -86 17 -133 73 -194 60
-65 180 -127 327 -168 52 -15 118 -38 147 -51 133 -63 171 -190 86 -285 -77
-85 -278 -94 -394 -17 -38 26 -79 98 -79 140 l0 28 -101 0 -102 0 7 -52 c19
-140 108 -235 278 -296 100 -35 277 -38 383 -5 171 53 267 182 251 335 -9 86
-40 151 -100 206 -72 65 -127 93 -305 151 -165 55 -206 75 -246 122 -19 24
-25 42 -25 80 0 120 93 186 249 177 126 -8 196 -59 221 -160 l12 -48 96 0 95
0 -6 54 c-13 128 -124 248 -267 290 -68 20 -208 28 -275 16z"/>
<path d="M9494 3066 c-161 -37 -285 -149 -346 -312 -21 -55 -22 -75 -22 -304
0 -229 1 -249 22 -304 66 -177 203 -289 384 -317 261 -41 499 111 563 358 21
82 21 445 0 528 -41 157 -158 283 -311 335 -77 27 -210 34 -290 16z m218 -162
c103 -34 181 -144 198 -276 12 -93 12 -262 0 -355 -16 -122 -77 -218 -173
-270 -50 -28 -198 -25 -253 4 -53 28 -100 83 -133 153 -26 54 -26 58 -26 290
0 232 0 236 26 290 71 152 211 216 361 164z"/>
<path d="M12075 3070 c-206 -37 -325 -156 -325 -323 0 -86 17 -133 73 -194 60
-65 180 -127 327 -168 52 -15 118 -38 147 -51 133 -63 171 -190 86 -285 -77
-85 -278 -94 -394 -17 -38 26 -79 98 -79 140 l0 28 -101 0 -102 0 7 -52 c19
-140 108 -235 278 -296 100 -35 277 -38 383 -5 171 53 267 182 251 335 -9 86
-40 151 -100 206 -72 65 -127 93 -305 151 -165 55 -206 75 -246 122 -19 24
-25 42 -25 80 0 120 93 186 249 177 126 -8 196 -59 221 -160 l12 -48 96 0 95
0 -6 54 c-13 128 -124 248 -267 290 -68 20 -208 28 -275 16z"/>
<path d="M4170 3052 c0 -4 96 -278 214 -608 l214 -599 97 0 97 0 218 608 217
607 -107 0 -106 0 -147 -452 c-81 -249 -150 -468 -153 -486 -10 -48 -22 -48
-34 0 -10 36 -168 530 -271 846 l-31 92 -104 0 c-57 0 -104 -4 -104 -8z"/>
<path d="M5390 2450 l0 -610 100 0 100 0 0 610 0 610 -100 0 -100 0 0 -610z"/>
<path d="M7052 2457 c-122 -332 -222 -607 -222 -610 0 -4 45 -7 99 -7 l99 0
49 140 48 140 241 0 242 0 48 -140 49 -140 102 0 103 0 -13 33 c-7 17 -107
292 -223 609 l-209 578 -95 0 -96 0 -222 -603z m410 91 l87 -263 -176 -3 c-97
-1 -178 0 -180 2 -7 7 167 526 176 526 3 0 46 -118 93 -262z"/>
<path d="M8060 2450 l0 -610 100 0 100 0 0 230 0 230 163 0 c299 0 422 52 499
208 31 62 33 73 33 172 0 93 -3 112 -27 162 -32 68 -97 136 -159 166 -88 43
-165 52 -446 52 l-263 0 0 -610z m588 424 c76 -38 107 -94 107 -195 0 -66 -4
-81 -30 -124 -50 -80 -78 -89 -287 -93 l-178 -3 0 220 0 221 168 0 c161 0 170
-1 220 -26z"/>
<path d="M10350 2450 l0 -610 380 0 380 0 0 80 0 80 -280 0 -280 0 0 530 0
530 -100 0 -100 0 0 -610z"/>
<path d="M11290 2450 l0 -610 100 0 100 0 0 610 0 610 -100 0 -100 0 0 -610z"/>
<path d="M1020 3020 c0 -3 4 -10 9 -15 6 -6 79 -129 164 -275 84 -146 193
-332 242 -415 140 -237 204 -347 418 -719 152 -265 202 -345 208 -330 3 10 12
42 18 69 18 78 64 166 156 305 47 70 85 132 85 137 0 9 -20 41 -240 388 -69
110 -184 297 -254 415 -251 422 -261 432 -441 437 -257 7 -365 8 -365 3z"/>
</g>
</svg>
